<?xml version="1.0" standalone="no"?>
<!DOCTYPE svg PUBLIC "-//W3C//DTD SVG 20010904//EN"
 "http://www.w3.org/TR/2001/REC-SVG-20010904/DTD/svg10.dtd">
<svg version="1.0" xmlns="http://www.w3.org/2000/svg"
 width="150.000000pt" height="150.000000pt" viewBox="0 0 150.000000 150.000000"
 preserveAspectRatio="xMidYMid meet">

<g transform="translate(0.000000,150.000000) scale(0.100000,-0.100000)"
fill="#000000" stroke="none">
<path d="M644 1283 c-15 -16 -16 -32 -9 -153 4 -74 8 -151 9 -170 l1 -35 -250
-5 c-137 -3 -255 -8 -261 -12 -20 -13 -23 -47 -6 -68 16 -19 31 -20 267 -23
l250 -2 -3 -25 c-1 -14 -5 -96 -8 -182 -7 -173 -3 -188 46 -188 49 0 54 18 61
206 4 95 10 178 14 183 4 7 88 11 250 11 208 0 246 2 259 16 17 17 20 42 8 62
-17 25 -82 32 -297 31 -206 -1 -220 1 -222 18 -1 10 -7 86 -13 168 -13 155
-23 185 -61 185 -10 0 -25 -8 -35 -17z"/>
</g>
</svg>
