<?xml version="1.0" standalone="no"?>
<!DOCTYPE svg PUBLIC "-//W3C//DTD SVG 20010904//EN"
 "http://www.w3.org/TR/2001/REC-SVG-20010904/DTD/svg10.dtd">
<svg version="1.0" xmlns="http://www.w3.org/2000/svg"
 width="1000.000000pt" height="1200.000000pt" viewBox="0 0 1000.000000 1200.000000"
 preserveAspectRatio="xMidYMid meet">

<g transform="translate(0.000000,1200.000000) scale(0.100000,-0.100000)"
fill="#000000" stroke="none">
<path d="M3357 8184 c-5 -5 -430 -11 -945 -14 -928 -6 -938 -6 -995 -27 -86
-33 -115 -54 -137 -98 -28 -57 -33 -156 -19 -340 7 -96 15 -542 20 -1115 4
-525 11 -1287 15 -1692 7 -761 4 -860 -34 -1123 -14 -100 -17 -194 -16 -575 1
-307 6 -483 14 -540 8 -55 15 -292 20 -680 4 -342 12 -625 18 -665 6 -38 16
-113 22 -165 16 -136 85 -479 118 -579 32 -100 112 -132 174 -71 27 27 29 35
25 78 -2 26 -11 76 -20 112 -106 421 -126 615 -131 1305 -3 359 -8 567 -17
620 -8 55 -12 240 -13 590 -1 433 2 526 16 615 36 229 41 360 34 1070 -4 377
-11 1124 -16 1660 -5 536 -13 1031 -18 1100 -6 69 -11 162 -11 207 l-1 82 38
11 c23 6 356 12 917 15 484 3 933 8 998 11 l119 5 37 -38 c20 -22 57 -79 81
-127 l45 -89 6 -391 c4 -215 9 -418 13 -451 3 -33 13 -139 21 -235 18 -199 39
-336 85 -550 7 -32 16 -217 21 -440 6 -212 14 -441 19 -510 5 -69 11 -219 15
-335 3 -115 12 -248 20 -295 30 -179 34 -358 36 -1675 l3 -1350 -27 -94 c-25
-87 -28 -116 -36 -360 -5 -146 -5 -278 0 -295 14 -50 47 -76 94 -76 48 0 80
26 95 81 6 19 15 153 19 299 9 252 11 269 38 350 l28 85 -3 1330 c-3 1089 -6
1361 -19 1500 -8 93 -17 174 -20 179 -3 5 -10 108 -15 230 -5 122 -13 286 -18
366 -5 80 -14 321 -19 535 -5 215 -14 415 -20 445 -5 30 -17 93 -26 140 -9 47
-21 113 -25 147 -5 35 -13 80 -19 100 -9 37 -20 164 -41 459 -6 77 -10 270
-10 428 0 310 -8 396 -47 494 -61 155 -147 268 -236 313 -53 27 -75 32 -162
36 -55 3 -104 1 -108 -3z"/>
<path d="M2432 6930 c-38 -24 -57 -62 -67 -140 -4 -30 -9 -58 -12 -62 -2 -5
-30 9 -61 29 -147 96 -232 128 -299 113 -105 -24 -127 -157 -43 -262 31 -39
67 -143 52 -152 -4 -2 -28 -6 -53 -10 -26 -4 -70 -22 -100 -41 -30 -19 -77
-45 -105 -58 -122 -58 -127 -164 -11 -239 l47 -30 -44 -48 c-86 -92 -112 -194
-64 -255 25 -33 128 -81 193 -91 42 -6 46 -9 40 -28 -29 -96 -30 -201 -1 -270
19 -45 61 -76 103 -76 38 0 261 38 275 46 10 6 64 -27 145 -88 105 -80 156
-73 258 32 37 39 70 70 74 70 4 0 18 -12 32 -26 44 -47 85 -65 144 -65 72 0
129 32 187 106 24 30 48 54 54 54 7 1 37 -11 68 -25 32 -14 83 -28 114 -31 52
-5 61 -3 89 21 41 35 69 119 84 256 12 114 17 123 82 164 67 42 91 86 90 161
0 50 -7 74 -33 123 -32 60 -32 60 -20 134 8 51 9 86 1 117 -9 40 -7 50 17 95
21 42 26 65 26 126 0 110 -31 159 -115 183 -36 11 -44 18 -49 43 -10 45 -35
78 -82 104 -37 21 -54 24 -120 22 -119 -4 -139 -4 -190 -2 -60 2 -119 -28
-156 -79 -27 -37 -30 -38 -53 -25 -64 35 -145 1 -169 -71 -15 -44 -26 -44 -34
-1 -10 51 -56 107 -128 154 -74 48 -114 53 -166 22z m893 -237 c-4 -21 -14
-51 -22 -68 -9 -16 -17 -49 -17 -73 -1 -38 4 -48 33 -74 29 -26 39 -30 77 -25
l43 4 -15 -30 c-21 -40 -21 -110 0 -141 16 -26 16 -27 -24 -65 -34 -32 -40
-44 -40 -79 0 -52 37 -97 95 -116 21 -8 41 -18 42 -23 4 -11 -39 -33 -63 -33
-31 0 -76 -33 -90 -65 -9 -22 -14 -71 -14 -138 0 -58 -3 -118 -6 -135 -6 -31
-7 -31 -35 -17 -16 9 -45 26 -65 40 -20 14 -48 25 -62 25 -23 0 -24 3 -18 38
3 20 6 45 6 55 0 11 8 17 21 17 35 0 79 53 79 95 0 27 -8 44 -29 66 -16 16
-37 29 -47 29 -9 0 -34 18 -54 40 -48 52 -96 56 -141 11 -16 -16 -29 -36 -29
-44 0 -13 -60 -53 -65 -45 0 2 -6 15 -13 30 -6 15 -23 35 -37 44 -34 22 -115
21 -154 -2 -64 -38 -92 -145 -51 -197 11 -14 20 -31 20 -37 0 -7 7 -27 16 -45
19 -40 61 -60 111 -52 35 6 93 50 93 71 1 28 16 36 43 23 19 -9 28 -22 33 -51
7 -42 51 -96 78 -96 9 0 16 -4 16 -9 0 -12 -90 -131 -99 -131 -4 0 -18 12 -32
26 -43 47 -105 76 -159 76 -60 0 -101 -23 -159 -92 -23 -27 -47 -50 -52 -50
-6 0 -43 23 -84 50 -99 69 -115 72 -227 49 -51 -10 -103 -19 -115 -19 -36 0
-28 36 18 88 23 26 47 58 54 72 36 71 25 151 -27 195 -29 25 -37 27 -88 21
-30 -4 -84 -9 -120 -12 l-65 -5 40 35 c22 20 68 50 102 66 75 37 103 69 103
121 0 50 -43 101 -102 119 l-43 14 83 13 c105 17 139 34 159 81 13 31 14 44 3
82 -27 98 -38 150 -30 150 12 0 77 -75 94 -109 23 -44 63 -71 105 -71 70 0
103 43 127 168 8 41 17 78 19 81 3 2 5 -29 5 -70 0 -41 5 -91 10 -111 20 -71
98 -101 153 -58 20 16 30 18 52 10 48 -18 85 -12 116 19 16 16 29 38 29 49 0
30 10 32 40 10 23 -16 38 -20 71 -15 70 9 108 67 109 164 0 30 2 31 28 24 43
-11 69 -2 104 35 18 19 41 34 51 34 17 0 18 -5 12 -37z"/>
<path d="M2407 6300 c-15 -12 -31 -38 -37 -58 -13 -48 -13 -436 0 -484 29
-103 161 -103 190 0 5 20 10 129 10 242 0 113 -5 222 -10 242 -13 46 -52 78
-95 78 -18 0 -44 -9 -58 -20z"/>
<path d="M5695 6080 c-86 -7 -386 -63 -406 -75 -3 -3 -82 -14 -175 -25 -155
-19 -356 -55 -446 -80 -49 -14 -94 -61 -110 -113 -10 -32 -13 -205 -13 -752 0
-720 2 -763 40 -1020 10 -65 19 -242 25 -502 5 -221 13 -428 19 -460 5 -32 15
-101 21 -153 18 -158 51 -383 90 -611 5 -26 27 -105 49 -175 95 -305 91 -271
97 -879 3 -297 7 -560 10 -584 15 -121 162 -138 194 -23 12 45 13 703 0 987
-9 218 -18 263 -104 554 -59 199 -77 300 -126 706 -6 50 -16 119 -21 154 -6
36 -14 238 -18 450 -5 212 -11 393 -14 401 -4 8 -11 62 -17 120 -5 58 -17 157
-25 220 -17 136 -20 270 -5 270 6 0 23 -6 38 -14 15 -8 49 -17 75 -21 44 -7
48 -10 42 -29 -29 -96 -30 -201 -1 -270 19 -45 61 -76 103 -76 38 0 261 38
275 46 10 6 64 -27 145 -88 105 -80 156 -73 258 32 37 39 70 70 74 70 4 0 18
-12 32 -26 44 -47 85 -65 144 -65 72 0 129 32 187 106 24 30 48 54 54 54 7 1
37 -11 68 -25 32 -14 83 -28 114 -31 52 -5 61 -3 89 21 41 35 69 119 84 259
11 100 14 109 41 132 16 14 33 25 36 25 4 0 7 -201 7 -448 1 -376 3 -461 18
-537 9 -49 21 -137 27 -195 28 -282 41 -399 66 -560 l26 -175 -6 -564 c-3
-309 -11 -721 -17 -915 -11 -392 -9 -447 26 -482 46 -46 118 -39 153 14 18 28
25 178 42 972 17 824 16 909 -24 1192 -19 134 -40 302 -46 373 -7 72 -22 191
-33 265 -18 116 -21 196 -25 580 -3 378 -1 465 13 576 15 111 17 187 12 480
-4 260 -9 367 -21 419 -37 169 -76 252 -153 327 -57 55 -134 85 -254 98 -57 6
-106 13 -110 16 -4 2 -63 16 -130 30 -140 29 -328 38 -494 24z m451 -225 c61
-14 169 -34 240 -45 127 -19 129 -20 166 -58 26 -28 44 -62 62 -121 33 -106
33 -113 -1 -105 -58 14 -73 24 -73 45 0 35 -36 83 -82 109 -37 21 -54 24 -120
22 -119 -4 -139 -4 -190 -2 -60 2 -119 -28 -156 -79 -27 -37 -30 -38 -53 -25
-64 35 -145 1 -169 -71 -15 -44 -26 -44 -34 -1 -10 51 -56 107 -128 154 -74
48 -114 53 -166 22 -38 -24 -57 -62 -67 -140 -4 -30 -9 -58 -12 -62 -2 -5 -30
9 -61 29 -147 96 -232 128 -299 113 -105 -24 -127 -157 -43 -262 31 -38 66
-139 52 -152 -3 -3 -15 -6 -26 -6 -42 0 -96 -21 -154 -60 -33 -22 -65 -40 -71
-40 -8 0 -11 83 -11 295 l0 294 38 10 c77 20 202 41 361 61 90 11 190 27 221
35 176 46 305 61 525 64 117 1 159 -3 251 -24z m189 -392 c-4 -21 -14 -51 -22
-68 -9 -16 -17 -49 -17 -73 -1 -38 4 -48 33 -74 29 -26 39 -30 77 -25 l43 4
-15 -30 c-21 -40 -21 -110 0 -141 16 -26 16 -27 -24 -65 -34 -32 -40 -44 -40
-79 0 -52 37 -97 95 -116 21 -8 41 -18 42 -23 4 -11 -39 -33 -63 -33 -31 0
-76 -33 -90 -65 -9 -22 -14 -71 -14 -138 0 -58 -3 -118 -6 -135 l-6 -31 -38
19 c-51 26 -56 37 -30 65 22 23 27 48 46 230 12 111 -28 185 -101 185 -64 0
-105 -60 -105 -155 0 -37 -3 -41 -35 -51 -35 -11 -35 -10 -58 29 -33 60 -68
81 -130 81 -95 0 -167 -59 -198 -164 -17 -56 1 -114 44 -140 40 -25 64 -25
102 -2 29 18 31 18 60 0 37 -22 57 -23 96 -3 28 15 32 14 62 -6 18 -13 34 -24
37 -27 3 -2 -2 -9 -10 -15 -8 -7 -23 -28 -33 -47 -10 -19 -33 -53 -52 -74
l-33 -40 -41 36 c-56 52 -97 70 -152 70 -59 0 -100 -24 -158 -92 -23 -27 -47
-50 -52 -50 -6 0 -43 23 -84 50 -99 69 -115 72 -227 49 -51 -10 -103 -19 -115
-19 -36 0 -28 36 18 88 23 26 47 58 54 72 36 71 25 151 -27 195 -29 25 -37 27
-88 21 -30 -4 -84 -9 -120 -12 l-65 -5 40 35 c22 20 68 50 102 66 75 37 103
69 103 121 0 50 -43 101 -102 119 l-43 14 83 13 c105 17 139 34 159 81 13 31
14 44 3 82 -27 98 -38 150 -30 150 12 0 77 -75 94 -109 23 -44 63 -71 105 -71
70 0 103 43 127 168 8 41 17 78 19 81 3 2 5 -29 5 -70 0 -41 5 -91 10 -111 20
-71 98 -101 153 -58 20 16 30 18 52 10 48 -18 85 -12 116 19 16 16 29 38 29
49 0 30 10 32 40 10 23 -16 38 -20 71 -15 70 9 108 67 109 164 0 30 2 31 28
24 43 -11 69 -2 104 35 18 19 41 34 51 34 17 0 18 -5 12 -37z m-1545 -617 c0
-2 -9 -11 -20 -21 -20 -18 -20 -17 -20 14 0 29 2 31 20 21 11 -6 20 -12 20
-14z"/>
<path d="M5330 5030 c-53 -13 -100 -70 -100 -121 0 -74 77 -123 141 -89 18 10
19 7 19 -37 0 -46 -2 -49 -75 -119 -76 -73 -81 -83 -75 -153 6 -67 87 -109
232 -118 83 -6 87 -5 112 20 14 14 28 37 32 52 9 35 -18 92 -51 107 -31 14
-31 17 2 81 25 47 28 62 28 157 0 82 -4 112 -18 138 -32 59 -164 103 -247 82z"/>
<path d="M9080 4084 c-14 -2 -45 -9 -70 -15 -161 -38 -294 -49 -599 -49 -202
0 -354 -5 -449 -15 -304 -32 -317 -36 -356 -111 -20 -37 -21 -54 -20 -349 1
-389 17 -780 34 -820 7 -16 16 -82 21 -145 5 -63 13 -146 19 -185 10 -72 31
-289 36 -385 8 -131 26 -341 36 -418 5 -45 13 -240 17 -433 l6 -351 33 -29
c44 -39 90 -39 134 0 l33 29 3 196 c3 192 -9 475 -28 671 -6 55 -14 159 -19
230 -19 270 -33 423 -47 511 -7 49 -14 121 -14 160 0 38 -8 98 -17 134 -18 73
-29 295 -39 761 l-6 307 39 6 c125 20 253 26 546 26 333 0 404 5 607 47 41 8
103 17 137 20 l62 5 25 -55 c13 -30 29 -78 35 -106 24 -113 7 -438 -33 -626
-44 -207 -57 -503 -35 -810 11 -161 42 -389 64 -470 40 -148 56 -276 64 -505
5 -154 12 -244 20 -261 23 -48 86 -66 136 -39 45 24 50 58 48 295 -2 226 -5
257 -48 455 -65 302 -85 503 -85 852 0 208 15 381 40 468 6 19 20 114 31 210
34 282 18 462 -55 632 -38 87 -64 121 -108 144 -28 15 -154 26 -198 18z"/>
<path d="M8539 3081 c-21 -22 -29 -39 -29 -66 0 -51 44 -95 95 -95 51 0 95 44
95 95 0 51 -44 95 -95 95 -27 0 -44 -8 -66 -29z"/>
<path d="M8159 3011 c-21 -22 -29 -39 -29 -66 0 -51 44 -95 95 -95 51 0 95 44
95 95 0 51 -44 95 -95 95 -27 0 -44 -8 -66 -29z"/>
<path d="M8548 2550 c-106 -27 -272 -127 -309 -186 -38 -62 -61 -170 -48 -220
12 -43 52 -74 96 -74 49 0 85 40 103 113 11 47 21 64 52 89 62 49 132 78 187
78 45 0 52 -3 84 -41 20 -22 52 -72 71 -109 36 -68 78 -113 116 -125 30 -9 86
12 104 40 28 42 19 80 -41 186 -108 187 -180 248 -305 254 -40 3 -90 0 -110
-5z"/>
<path d="M8540 1823 c-89 -16 -130 -51 -130 -110 0 -25 8 -43 29 -64 30 -29
46 -34 114 -30 60 4 46 -33 -26 -69 -84 -42 -71 -163 22 -204 22 -11 41 -25
41 -32 0 -7 -20 -20 -45 -30 -88 -33 -112 -108 -55 -166 29 -28 35 -30 88 -26
44 3 70 12 113 40 80 51 103 87 107 170 4 59 1 73 -22 113 -26 43 -26 46 -11
76 24 46 37 141 26 190 -21 92 -144 162 -251 142z"/>
</g>
</svg>
