<?xml version="1.0" standalone="no"?>
<!DOCTYPE svg PUBLIC "-//W3C//DTD SVG 20010904//EN"
 "http://www.w3.org/TR/2001/REC-SVG-20010904/DTD/svg10.dtd">
<svg version="1.0" xmlns="http://www.w3.org/2000/svg"
 width="200.000000pt" height="200.000000pt" viewBox="0 0 200.000000 200.000000"
 preserveAspectRatio="xMidYMid meet">

<g transform="translate(0.000000,200.000000) scale(0.100000,-0.100000)"
fill="#000000" stroke="none">
<path d="M560 1724 c-50 -22 -89 -61 -116 -119 -30 -63 -30 -75 1 -144 28 -62
86 -109 171 -138 43 -15 44 -16 44 -58 l0 -44 -47 -6 c-67 -8 -97 -25 -101
-57 -5 -41 35 -62 98 -54 l50 7 2 -58 c3 -98 -1 -123 -29 -182 -22 -44 -28
-70 -28 -123 l0 -68 -35 0 c-19 -1 -55 -5 -80 -10 -25 -5 -85 -14 -133 -20
-157 -19 -162 -28 -162 -315 0 -228 7 -269 52 -305 46 -36 116 -20 144 32 7
13 11 85 10 203 l-2 182 73 11 c167 25 281 32 543 32 297 0 326 -4 339 -52 3
-13 6 -88 6 -168 0 -157 8 -201 42 -237 30 -32 96 -32 126 0 34 36 42 80 42
217 0 153 -21 303 -47 339 -23 31 -128 85 -196 100 -26 6 -127 11 -222 11
l-175 0 0 24 c0 13 -8 43 -19 67 -10 24 -26 65 -35 90 -9 27 -36 65 -61 90
-41 40 -45 49 -45 92 0 42 2 47 23 47 33 0 67 28 67 55 0 27 -34 55 -67 55
-20 0 -23 5 -23 40 0 39 1 40 36 40 57 0 120 20 154 48 26 22 33 38 42 92 15
86 6 116 -49 164 -25 23 -49 51 -54 64 -5 14 -30 33 -61 47 -45 21 -68 25
-148 25 -62 -1 -107 -6 -130 -16z m224 -112 c4 -10 31 -36 62 -58 54 -38 55
-40 51 -82 -3 -24 -8 -46 -12 -50 -4 -4 -55 -7 -114 -7 -95 1 -112 4 -156 27
-65 33 -92 77 -75 119 23 56 53 69 151 69 76 0 88 -2 93 -18z m14 -824 c17
-45 30 -83 29 -84 -1 -1 -28 -4 -59 -7 l-58 -6 0 47 c0 43 34 132 51 132 3 0
20 -37 37 -82z"/>
<path d="M612 1588 c-28 -28 -7 -78 33 -78 12 0 26 5 33 12 7 7 12 21 12 33 0
12 -5 26 -12 33 -7 7 -21 12 -33 12 -12 0 -26 -5 -33 -12z"/>
<path d="M782 1518 c-28 -28 -7 -78 33 -78 12 0 26 5 33 12 7 7 12 21 12 33 0
12 -5 26 -12 33 -7 7 -21 12 -33 12 -12 0 -26 -5 -33 -12z"/>
</g>
</svg>
