<?xml version="1.0" standalone="no"?>
<!DOCTYPE svg PUBLIC "-//W3C//DTD SVG 20010904//EN"
 "http://www.w3.org/TR/2001/REC-SVG-20010904/DTD/svg10.dtd">
<svg version="1.0" xmlns="http://www.w3.org/2000/svg"
 width="200.000000pt" height="200.000000pt" viewBox="0 0 200.000000 200.000000"
 preserveAspectRatio="xMidYMid meet">

<g transform="translate(0.000000,200.000000) scale(0.100000,-0.100000)"
fill="#000000" stroke="none">
<path d="M845 1622 c-79 -43 -174 -186 -235 -353 -28 -79 -45 -109 -59 -109
-4 0 -52 27 -107 60 -75 45 -108 60 -137 60 -76 0 -124 -87 -81 -149 20 -28
182 -136 218 -145 31 -8 32 -17 7 -87 -32 -90 -76 -178 -149 -300 -135 -223
-154 -321 -73 -376 23 -16 56 -18 249 -21 252 -4 225 7 236 -97 4 -27 14 -61
25 -75 16 -22 26 -25 76 -25 52 0 60 3 79 28 17 24 21 43 21 110 l0 82 83 3
82 3 0 -43 c0 -98 40 -158 105 -158 63 0 105 60 105 152 l0 36 178 4 c154 3
181 6 209 22 90 55 62 217 -53 308 -55 43 -122 136 -169 233 -44 91 -43 97 15
146 111 94 120 105 120 144 0 27 -8 44 -29 66 -42 41 -100 40 -165 -2 -26 -17
-48 -30 -49 -28 -1 2 -22 44 -47 93 -54 107 -227 342 -305 414 -44 40 -82 41
-150 4z m101 -264 c83 -89 182 -243 219 -343 l25 -66 -31 -39 c-21 -26 -33
-54 -36 -84 -5 -40 -2 -48 25 -76 24 -24 39 -30 72 -30 29 0 42 -5 47 -17 11
-29 113 -195 145 -235 l30 -38 -105 0 -105 0 -27 33 c-35 41 -62 56 -101 57
-34 0 -79 -30 -89 -59 -4 -14 -22 -21 -78 -28 -70 -10 -73 -10 -100 16 -22 20
-39 26 -74 26 -39 0 -49 -5 -73 -33 l-27 -33 -116 3 -117 3 64 106 c57 95 115
211 145 292 9 24 14 26 30 17 34 -18 78 -11 110 16 26 22 31 33 31 71 0 39 -5
50 -39 84 l-39 40 28 57 c16 31 40 89 55 129 25 69 79 163 94 163 4 0 21 -15
37 -32z"/>
<path d="M739 751 c-21 -22 -29 -39 -29 -66 0 -51 44 -95 95 -95 51 0 95 44
95 95 0 27 -8 44 -29 66 -41 40 -91 40 -132 0z"/>
<path d="M999 741 c-21 -22 -29 -39 -29 -66 0 -51 44 -95 95 -95 51 0 95 44
95 95 0 27 -8 44 -29 66 -41 40 -91 40 -132 0z"/>
</g>
</svg>
