<?xml version="1.0" standalone="no"?>
<!DOCTYPE svg PUBLIC "-//W3C//DTD SVG 20010904//EN"
 "http://www.w3.org/TR/2001/REC-SVG-20010904/DTD/svg10.dtd">
<svg version="1.0" xmlns="http://www.w3.org/2000/svg"
 width="800.000000pt" height="1080.000000pt" viewBox="0 0 800.000000 1080.000000"
 preserveAspectRatio="xMidYMid meet">

<g transform="translate(0.000000,1080.000000) scale(0.100000,-0.100000)"
fill="#000000" stroke="none">
<path d="M6170 5920 c-142 -25 -225 -90 -292 -228 -22 -46 -58 -105 -79 -132
-49 -62 -79 -66 -127 -16 -50 52 -108 88 -154 97 -47 9 -182 2 -240 -12 -104
-26 -103 -161 2 -189 23 -6 72 -8 120 -4 l81 7 47 -50 c26 -27 59 -57 73 -66
35 -23 133 -32 201 -18 49 10 63 19 110 69 67 71 114 139 134 194 22 62 75
122 122 136 87 26 114 15 214 -89 91 -94 149 -129 212 -129 50 0 141 34 176
65 34 29 165 75 216 75 50 0 52 -1 84 -49 36 -53 73 -79 127 -91 134 -31 202
134 77 186 -20 8 -40 28 -50 47 -51 101 -111 123 -301 111 -99 -6 -119 -10
-142 -30 -15 -12 -47 -33 -72 -47 -24 -13 -58 -32 -76 -43 l-31 -18 -79 74
c-153 147 -216 174 -353 150z"/>
<path d="M740 5867 c-47 -13 -73 -30 -198 -131 -125 -100 -165 -204 -103 -267
22 -21 39 -29 66 -29 38 0 45 5 131 101 42 47 152 129 174 129 14 0 19 -12 24
-56 8 -67 25 -102 78 -160 79 -86 214 -167 298 -179 55 -8 157 9 222 37 46 20
152 120 209 198 30 40 68 60 116 60 35 0 45 -7 113 -80 69 -73 79 -80 114 -80
53 0 96 43 96 97 0 72 -108 201 -205 245 -119 53 -290 12 -372 -89 -67 -83
-137 -155 -165 -169 -49 -25 -114 -18 -177 20 -94 58 -117 90 -124 168 -9 97
-32 135 -104 172 -44 22 -138 29 -193 13z"/>
</g>
</svg>
