<?xml version="1.0" standalone="no"?>
<!DOCTYPE svg PUBLIC "-//W3C//DTD SVG 20010904//EN"
 "http://www.w3.org/TR/2001/REC-SVG-20010904/DTD/svg10.dtd">
<svg version="1.0" xmlns="http://www.w3.org/2000/svg"
 width="800.000000pt" height="1080.000000pt" viewBox="0 0 800.000000 1080.000000"
 preserveAspectRatio="xMidYMid meet">

<g transform="translate(0.000000,1080.000000) scale(0.100000,-0.100000)"
fill="#000000" stroke="none">
<path d="M6680 5649 c-25 -4 -340 -8 -700 -8 -416 -1 -669 -5 -692 -11 -115
-32 -98 -177 23 -195 59 -8 1294 1 1530 12 204 9 225 15 249 72 23 58 -10 116
-75 131 -48 11 -271 11 -335 -1z"/>
<path d="M509 5646 c-3 -3 -63 -10 -133 -15 -81 -6 -136 -15 -150 -25 -30 -19
-50 -69 -42 -102 19 -73 100 -96 265 -74 66 8 174 10 346 6 480 -11 1200 -18
1244 -11 108 16 138 136 48 187 -16 10 -151 15 -532 20 -280 4 -629 10 -775
13 -146 4 -268 4 -271 1z"/>
</g>
</svg>
