<?xml version="1.0" standalone="no"?>
<!DOCTYPE svg PUBLIC "-//W3C//DTD SVG 20010904//EN"
 "http://www.w3.org/TR/2001/REC-SVG-20010904/DTD/svg10.dtd">
<svg version="1.0" xmlns="http://www.w3.org/2000/svg"
 width="800.000000pt" height="1080.000000pt" viewBox="0 0 800.000000 1080.000000"
 preserveAspectRatio="xMidYMid meet">

<g transform="translate(0.000000,1080.000000) scale(0.100000,-0.100000)"
fill="#000000" stroke="none">
<path d="M6645 6800 c-77 -34 -133 -107 -145 -189 -21 -135 75 -181 210 -102
94 57 161 55 186 -6 14 -33 14 -38 -11 -88 -18 -38 -40 -63 -73 -85 -41 -28
-53 -31 -97 -27 -63 6 -75 1 -75 -28 0 -85 173 -55 265 47 50 55 80 133 71
181 -8 40 -49 93 -88 113 -45 23 -105 12 -197 -38 -84 -45 -105 -46 -122 -1
-20 54 34 131 120 169 42 18 54 34 45 59 -8 20 -39 18 -89 -5z"/>
<path d="M6182 6488 c-18 -18 -14 -50 14 -114 35 -77 106 -286 99 -292 -6 -7
-94 62 -195 152 -89 81 -120 97 -146 75 -22 -18 -11 -65 35 -158 21 -42 55
-119 76 -171 67 -171 96 -211 139 -194 22 9 20 37 -8 92 -39 78 -108 244 -103
249 3 2 58 -39 124 -92 123 -99 153 -116 178 -95 23 19 18 48 -35 206 -27 81
-50 154 -50 163 0 9 20 -4 53 -35 95 -93 219 -194 237 -194 24 0 43 25 36 47
-3 10 -41 45 -83 78 -43 33 -127 107 -188 166 -132 128 -157 143 -183 117z"/>
<path d="M461 6335 c-45 -26 -79 -51 -191 -141 -36 -28 -74 -53 -84 -55 -10
-2 -24 -13 -30 -24 -6 -11 -32 -43 -58 -72 -49 -53 -52 -60 -42 -87 11 -29 45
-16 104 40 l59 56 88 -12 c48 -6 91 -15 96 -19 4 -4 2 -41 -4 -83 -9 -61 -8
-81 2 -104 33 -66 64 -33 72 79 4 46 13 120 21 163 40 222 43 274 21 281 -5 1
-30 -8 -54 -22z m-29 -185 l-8 -45 -43 3 c-87 7 -88 13 -14 69 75 56 80 54 65
-27z"/>
<path d="M752 6257 c-6 -7 -23 -46 -38 -87 -15 -41 -41 -104 -59 -140 -46 -91
-97 -236 -93 -263 2 -14 11 -23 27 -25 28 -4 34 4 62 86 11 34 24 62 28 62 18
0 121 -121 160 -187 44 -77 70 -92 91 -53 9 16 6 31 -15 72 -14 29 -40 70 -56
92 l-30 41 49 6 c104 13 147 57 147 148 -1 94 -64 180 -175 236 -55 28 -82 31
-98 12z m100 -100 c44 -26 85 -78 98 -125 15 -56 -7 -86 -70 -97 -33 -5 -147
18 -162 33 -4 4 6 36 22 70 16 34 35 80 41 102 14 46 21 48 71 17z"/>
<path d="M5659 6061 c-19 -4 -65 -24 -102 -45 -92 -51 -95 -67 -25 -154 30
-37 71 -94 91 -127 20 -33 65 -97 101 -142 68 -85 96 -101 115 -65 11 20 0 41
-57 111 l-33 40 58 18 c39 11 93 17 165 17 113 1 135 9 124 44 -9 26 -43 34
-143 33 -46 -1 -83 1 -83 3 0 2 9 23 20 47 39 87 17 164 -59 203 -33 18 -125
27 -172 17z m140 -86 c37 -18 44 -38 31 -85 -10 -37 -70 -109 -109 -129 -18
-10 -24 -5 -57 46 -20 32 -50 73 -68 91 -31 33 -31 34 -11 49 57 43 159 57
214 28z"/>
<path d="M1255 6018 c-19 -23 -47 -63 -62 -88 -14 -25 -54 -83 -88 -130 -77
-106 -90 -126 -109 -172 -14 -33 -14 -38 0 -52 8 -9 22 -16 29 -16 8 0 51 55
96 123 45 67 91 133 102 147 l20 25 -6 -55 c-3 -30 -11 -106 -18 -168 -14
-116 -9 -144 23 -150 23 -4 61 31 150 141 45 56 93 113 106 127 l23 25 -5 -25
c-17 -77 -56 -305 -56 -329 0 -31 16 -51 42 -51 25 0 35 25 42 105 4 39 23
155 43 258 39 198 39 219 -4 225 -23 3 -49 -24 -135 -144 -32 -43 -78 -101
-103 -129 l-46 -50 5 60 c4 33 16 121 28 197 18 113 20 139 9 152 -22 26 -47
18 -86 -26z"/>
<path d="M5265 5758 c-3 -18 1 -104 10 -192 8 -87 13 -167 9 -178 -3 -10 1
-29 9 -41 7 -12 17 -35 21 -52 25 -103 25 -105 55 -105 38 0 43 16 26 87 -23
94 -21 102 46 176 l60 67 62 -50 c34 -28 72 -53 84 -56 63 -16 74 41 16 77
-30 18 -238 192 -263 219 -3 3 -24 22 -48 43 -53 47 -79 48 -87 5z m135 -147
l44 -38 -40 -46 c-21 -25 -42 -42 -45 -39 -10 11 -20 162 -11 162 4 0 28 -17
52 -39z"/>
<path d="M1913 5769 c-59 -11 -101 -35 -124 -72 -38 -62 -2 -124 102 -177 65
-33 109 -80 109 -117 0 -14 -13 -37 -30 -55 -29 -28 -35 -30 -93 -26 -89 6
-137 32 -165 91 -18 37 -27 47 -47 47 -34 0 -44 -42 -20 -86 20 -38 101 -96
159 -114 50 -16 155 -8 193 15 43 25 75 80 75 130 0 78 -24 105 -154 179 -65
36 -75 57 -44 93 21 24 31 28 78 28 41 -1 67 -9 115 -35 57 -31 64 -33 79 -19
14 15 13 19 -10 46 -48 57 -142 87 -223 72z"/>
</g>
</svg>
