<?xml version="1.0" standalone="no"?>
<!DOCTYPE svg PUBLIC "-//W3C//DTD SVG 20010904//EN"
 "http://www.w3.org/TR/2001/REC-SVG-20010904/DTD/svg10.dtd">
<svg version="1.0" xmlns="http://www.w3.org/2000/svg"
 width="800.000000pt" height="1080.000000pt" viewBox="0 0 800.000000 1080.000000"
 preserveAspectRatio="xMidYMid meet">

<g transform="translate(0.000000,1080.000000) scale(0.100000,-0.100000)"
fill="#000000" stroke="none">
<path d="M6856 9110 c-3 -8 -224 -645 -490 -1416 -266 -771 -487 -1408 -492
-1417 -18 -32 -208 -217 -214 -210 -4 4 -87 179 -185 388 -97 209 -180 383
-184 387 -3 4 -82 -153 -174 -349 l-167 -357 129 -275 c98 -208 127 -279 119
-289 -9 -10 -3 -22 24 -50 26 -27 105 -186 297 -597 144 -308 266 -564 270
-568 6 -6 240 656 499 1415 21 62 42 107 49 105 11 -2 213 142 213 153 0 3
-29 32 -65 65 l-65 60 390 1128 390 1128 -150 320 c-185 395 -187 398 -194
379z"/>
<path d="M1042 6295 c-116 -140 -212 -258 -212 -262 0 -5 126 -80 280 -168
154 -87 280 -162 280 -165 0 -3 -182 -63 -403 -133 l-403 -129 -202 48 -202
48 -88 -20 -87 -19 0 -135 0 -135 305 -72 c168 -40 314 -72 324 -73 10 0 279
83 596 185 317 102 584 185 592 185 9 0 51 -20 94 -45 44 -25 82 -45 85 -45 3
0 45 47 93 104 67 81 95 107 124 116 20 7 40 16 45 19 4 4 -56 22 -132 40
l-140 32 -368 211 c-202 116 -371 213 -375 217 -5 4 44 69 107 146 64 76 112
142 108 146 -19 18 -198 159 -203 159 -3 0 -101 -115 -218 -255z"/>
</g>
</svg>
