<?xml version="1.0" standalone="no"?>
<!DOCTYPE svg PUBLIC "-//W3C//DTD SVG 20010904//EN"
 "http://www.w3.org/TR/2001/REC-SVG-20010904/DTD/svg10.dtd">
<svg version="1.0" xmlns="http://www.w3.org/2000/svg"
 width="800.000000pt" height="1080.000000pt" viewBox="0 0 800.000000 1080.000000"
 preserveAspectRatio="xMidYMid meet">

<g transform="translate(0.000000,1080.000000) scale(0.100000,-0.100000)"
fill="#000000" stroke="none">
<path d="M5958 6743 c-15 -11 -51 -50 -79 -88 -29 -39 -91 -110 -138 -160 -74
-77 -90 -101 -114 -165 -16 -41 -46 -113 -67 -160 -21 -47 -59 -137 -85 -200
-50 -125 -61 -144 -112 -205 -18 -22 -56 -71 -83 -109 -62 -85 -67 -130 -21
-177 55 -55 133 -30 192 63 18 28 52 74 76 101 45 53 112 175 133 242 7 22 38
96 70 165 32 69 68 152 80 185 17 46 40 78 100 140 43 44 105 118 139 164 70
97 79 139 38 186 -30 35 -91 43 -129 18z"/>
<path d="M920 6589 c-57 -22 -78 -98 -42 -149 30 -42 293 -305 352 -352 30
-24 78 -67 107 -95 28 -28 78 -65 110 -83 39 -22 101 -77 193 -170 74 -77 163
-159 197 -184 34 -25 67 -54 73 -65 14 -27 61 -51 100 -51 22 0 41 10 62 30
27 28 30 36 25 75 -5 53 -54 119 -120 162 -23 15 -107 94 -187 174 -92 92
-172 164 -220 194 -41 27 -97 71 -125 98 -27 27 -72 67 -100 88 -27 21 -100
91 -162 157 -109 117 -190 183 -222 181 -9 0 -27 -5 -41 -10z"/>
</g>
</svg>
