<?xml version="1.0" standalone="no"?>
<!DOCTYPE svg PUBLIC "-//W3C//DTD SVG 20010904//EN"
 "http://www.w3.org/TR/2001/REC-SVG-20010904/DTD/svg10.dtd">
<svg version="1.0" xmlns="http://www.w3.org/2000/svg"
 width="800.000000pt" height="1080.000000pt" viewBox="0 0 800.000000 1080.000000"
 preserveAspectRatio="xMidYMid meet">

<g transform="translate(0.000000,1080.000000) scale(0.100000,-0.100000)"
fill="#000000" stroke="none">
<path d="M6337 6380 c-35 -27 -47 -76 -47 -185 0 -49 -7 -129 -16 -177 l-16
-88 -82 -41 c-44 -23 -85 -45 -91 -48 -23 -17 -184 -79 -230 -90 -27 -6 -98
-18 -156 -26 -58 -8 -130 -24 -160 -34 -46 -16 -99 -29 -248 -57 -13 -3 -36
-18 -52 -34 -41 -40 -40 -91 2 -132 30 -30 32 -31 107 -25 64 4 258 47 282 62
4 3 52 11 107 19 211 32 308 64 507 166 43 22 89 40 102 40 14 0 40 15 61 33
34 32 37 39 60 168 29 168 39 329 24 386 -21 76 -98 107 -154 63z"/>
<path d="M665 6016 c-30 -30 -41 -70 -27 -101 18 -39 203 -254 288 -335 91
-86 221 -164 303 -181 68 -14 540 -7 661 11 47 6 105 14 129 17 93 10 134 102
73 163 -38 37 -104 48 -192 30 -39 -8 -178 -14 -352 -17 l-287 -5 -63 34 c-77
40 -195 151 -296 277 -42 51 -90 102 -106 112 -44 27 -101 25 -131 -5z"/>
</g>
</svg>
