<?xml version="1.0" standalone="no"?>
<!DOCTYPE svg PUBLIC "-//W3C//DTD SVG 20010904//EN"
 "http://www.w3.org/TR/2001/REC-SVG-20010904/DTD/svg10.dtd">
<svg version="1.0" xmlns="http://www.w3.org/2000/svg"
 width="800.000000pt" height="1080.000000pt" viewBox="0 0 800.000000 1080.000000"
 preserveAspectRatio="xMidYMid meet">

<g transform="translate(0.000000,1080.000000) scale(0.100000,-0.100000)"
fill="#000000" stroke="none">
<path d="M5283 5619 c-98 -29 -95 -161 5 -189 22 -6 162 -10 335 -10 l297 0
68 -34 c37 -19 78 -45 91 -59 25 -28 25 -28 0 -157 -17 -88 -6 -155 31 -192
46 -45 120 -34 151 24 6 11 15 55 19 97 5 42 14 102 20 133 19 93 1 155 -67
229 -45 48 -76 70 -162 112 l-106 52 -325 2 c-183 1 -339 -2 -357 -8z"/>
<path d="M1585 5599 c-161 -25 -330 -79 -451 -142 -49 -26 -128 -123 -155
-192 -14 -36 -24 -255 -15 -319 4 -27 18 -59 32 -76 21 -25 33 -30 68 -30 82
0 106 53 106 236 0 118 1 122 29 161 23 32 46 47 106 73 182 75 317 100 546
100 172 0 219 9 249 47 43 55 13 133 -58 153 -60 16 -323 10 -457 -11z"/>
</g>
</svg>
