<?xml version="1.0" standalone="no"?>
<!DOCTYPE svg PUBLIC "-//W3C//DTD SVG 20010904//EN"
 "http://www.w3.org/TR/2001/REC-SVG-20010904/DTD/svg10.dtd">
<svg version="1.0" xmlns="http://www.w3.org/2000/svg"
 width="800.000000pt" height="1080.000000pt" viewBox="0 0 800.000000 1080.000000"
 preserveAspectRatio="xMidYMid meet">

<g transform="translate(0.000000,1080.000000) scale(0.100000,-0.100000)"
fill="#000000" stroke="none">
<path d="M6389 6530 c-33 -6 -76 -27 -140 -71 -130 -86 -243 -173 -268 -205
-50 -63 -4 -154 77 -154 38 0 82 26 205 120 l27 22 0 -69 c0 -37 -7 -107 -16
-155 l-16 -88 -82 -41 c-44 -23 -85 -45 -91 -48 -23 -17 -184 -79 -230 -90
-27 -6 -98 -18 -156 -26 -58 -8 -130 -24 -160 -34 -46 -16 -99 -29 -248 -57
-13 -3 -36 -18 -52 -34 -41 -40 -40 -91 2 -132 30 -30 32 -31 107 -25 64 4
258 47 282 62 4 3 52 11 107 19 211 32 308 64 507 166 43 22 89 40 102 40 14
0 40 15 61 33 34 32 37 39 60 168 13 74 26 183 30 242 l6 108 24 -23 c14 -13
40 -56 58 -96 29 -61 40 -75 70 -88 29 -12 44 -13 70 -4 111 37 74 212 -76
356 -41 39 -87 78 -104 86 -40 20 -100 27 -156 18z"/>
<path d="M547 6124 c-37 -20 -81 -112 -100 -209 -19 -96 -39 -187 -62 -277
-12 -46 -15 -81 -10 -114 21 -140 182 -139 199 2 3 27 11 69 17 94 22 88 40
176 46 213 3 21 9 40 14 42 4 3 50 -45 102 -107 180 -217 341 -341 476 -369
68 -14 540 -7 661 11 47 6 105 14 129 17 93 10 134 102 73 163 -38 37 -104 48
-192 30 -39 -8 -178 -14 -352 -17 l-287 -5 -63 33 c-57 31 -258 209 -258 229
0 5 62 7 138 6 118 -1 141 2 164 17 36 25 52 73 37 114 -19 57 -43 64 -253 79
-176 11 -282 28 -351 54 -38 14 -95 12 -128 -6z"/>
</g>
</svg>
