<svg id="svg" version="1.1" xmlns="http://www.w3.org/2000/svg" xmlns:xlink="http://www.w3.org/1999/xlink" width="400" height="540" viewBox="0, 0, 400,540"><g id="svgg"><path id="path0" d="M158.983 61.961 C 158.011 62.152,156.907 62.499,156.529 62.732 C 156.151 62.966,154.583 63.442,153.046 63.791 C 144.808 65.660,142.940 66.232,139.589 67.913 C 137.528 68.947,135.342 70.483,134.589 71.427 C 132.594 73.927,128.636 77.883,124.846 81.165 C 122.994 82.769,121.025 84.906,120.469 85.915 C 118.533 89.432,116.386 92.059,113.449 94.502 C 103.192 103.039,103.621 102.025,103.292 118.500 C 103.152 125.513,102.796 132.375,102.500 133.750 C 100.120 144.819,102.645 150.305,113.969 158.659 C 115.499 159.788,118.100 161.804,119.750 163.140 C 127.218 169.185,137.246 172.500,148.069 172.500 C 151.881 172.500,155.000 172.624,155.000 172.775 C 155.000 172.926,154.694 173.657,154.320 174.400 C 153.945 175.142,153.489 176.762,153.305 178.000 C 153.121 179.238,152.735 180.981,152.447 181.875 L 151.922 183.500 134.985 183.500 C 125.669 183.500,117.530 183.709,116.899 183.965 C 116.267 184.221,115.171 184.553,114.463 184.703 C 113.756 184.852,112.293 185.578,111.213 186.316 C 110.134 187.053,108.125 188.130,106.750 188.709 C 100.326 191.413,98.754 193.132,97.517 198.801 C 96.513 203.402,94.807 208.179,93.693 209.507 C 90.097 213.796,91.174 237.290,95.651 252.250 C 96.372 254.659,96.349 262.197,95.608 266.000 C 95.314 267.512,95.057 271.521,95.037 274.908 C 95.016 278.295,94.800 281.445,94.555 281.908 C 94.310 282.371,94.029 290.137,93.930 299.165 L 93.750 315.580 95.383 317.040 C 97.861 319.256,99.180 322.119,98.765 324.382 C 98.577 325.409,98.356 328.725,98.275 331.750 C 98.167 335.741,97.835 338.103,97.063 340.359 C 91.941 355.337,98.763 358.603,136.648 359.308 L 149.546 359.548 149.325 367.649 C 149.048 377.778,148.222 389.408,147.528 392.943 C 145.912 401.182,147.111 429.339,149.166 431.393 C 153.827 436.054,160.246 431.628,159.078 424.559 C 158.355 420.178,158.338 400.360,159.054 396.000 C 159.796 391.479,160.486 381.042,160.813 369.375 L 161.090 359.500 165.835 359.500 C 168.445 359.500,172.643 359.273,175.165 358.995 C 177.687 358.718,185.834 358.436,193.271 358.370 L 206.792 358.250 207.595 360.000 C 208.037 360.962,208.671 362.650,209.005 363.750 C 209.338 364.850,209.890 366.200,210.230 366.750 C 210.571 367.300,211.003 368.650,211.191 369.750 C 211.720 372.847,214.367 379.928,216.238 383.250 C 218.558 387.369,224.508 399.163,224.503 399.633 C 224.495 400.531,231.047 413.129,232.669 415.336 C 236.130 420.043,236.577 420.483,238.480 421.053 C 243.948 422.691,248.697 417.329,245.652 412.955 C 242.191 407.985,239.789 404.149,238.949 402.252 C 238.411 401.036,237.753 399.906,237.486 399.741 C 237.219 399.576,237.000 399.050,237.000 398.572 C 237.000 398.093,234.866 393.550,232.258 388.476 C 224.736 373.838,222.500 368.603,222.500 365.627 C 222.500 364.861,222.019 363.339,221.431 362.243 C 219.505 358.655,219.399 357.635,220.924 357.357 C 221.653 357.225,224.950 356.620,228.250 356.014 C 231.576 355.403,236.812 354.854,240.000 354.782 C 244.540 354.679,246.539 354.390,249.500 353.407 C 251.563 352.723,254.196 351.895,255.352 351.568 C 259.845 350.297,262.323 347.060,263.267 341.231 C 263.646 338.891,264.128 336.700,264.339 336.363 C 264.550 336.026,264.888 332.600,265.092 328.750 C 265.664 317.901,266.322 311.977,267.256 309.250 C 269.257 303.406,268.472 221.729,266.364 216.500 C 266.087 215.813,265.695 212.100,265.494 208.250 C 265.293 204.400,264.838 200.350,264.483 199.250 C 264.128 198.150,263.875 195.948,263.921 194.356 C 264.114 187.756,262.656 187.000,249.742 187.000 C 243.899 187.000,239.541 186.789,238.961 186.479 C 238.426 186.193,232.054 185.753,224.801 185.502 C 207.097 184.889,203.000 184.303,203.000 182.384 C 203.000 180.994,202.411 179.487,200.505 176.000 C 198.304 171.975,198.740 171.560,206.750 170.057 C 215.639 168.389,219.945 167.272,225.203 165.268 C 234.136 161.863,240.365 158.914,243.336 156.684 C 244.483 155.823,246.726 154.372,248.320 153.460 C 254.398 149.982,261.163 142.097,263.245 136.062 C 264.407 132.694,264.289 120.574,263.053 116.428 C 262.532 114.680,261.979 112.216,261.823 110.952 C 260.665 101.546,256.819 94.428,250.290 89.606 C 247.876 87.824,247.292 87.464,242.918 85.057 C 241.726 84.401,239.421 82.714,237.796 81.307 C 234.909 78.807,232.514 77.153,230.000 75.922 C 229.313 75.585,228.300 74.935,227.750 74.478 C 226.281 73.257,215.352 68.794,210.739 67.531 C 208.545 66.931,205.775 65.896,204.584 65.232 C 202.094 63.844,200.246 63.267,195.000 62.236 C 191.035 61.458,162.658 61.241,158.983 61.961 M192.045 73.722 C 194.498 74.124,197.717 75.076,199.549 75.942 C 202.491 77.332,207.173 78.923,210.645 79.712 C 211.979 80.015,218.929 83.033,220.500 83.991 C 220.912 84.242,222.722 85.342,224.520 86.434 C 226.319 87.527,229.271 89.900,231.080 91.710 C 233.372 94.002,234.881 95.096,236.060 95.321 C 239.877 96.049,245.901 100.708,247.440 104.124 C 249.689 109.114,249.947 110.001,250.511 114.693 C 250.805 117.137,251.397 119.817,251.826 120.648 C 253.007 122.931,252.570 131.542,251.137 134.250 C 249.920 136.548,245.292 141.157,242.000 143.348 C 235.206 147.871,234.202 148.500,233.785 148.500 C 233.534 148.500,232.974 148.806,232.539 149.180 C 232.105 149.554,230.120 150.473,228.128 151.223 C 226.136 151.972,224.379 152.791,224.224 153.042 C 224.068 153.294,223.595 153.500,223.171 153.500 C 222.748 153.500,221.692 153.818,220.826 154.206 C 217.727 155.595,207.866 158.123,203.000 158.777 C 200.543 159.108,196.310 160.215,193.397 161.290 C 188.628 163.051,176.865 163.378,169.959 161.943 C 168.469 161.633,161.738 161.211,155.000 161.004 C 143.634 160.655,138.674 160.118,137.303 159.088 C 136.999 158.859,135.625 158.267,134.250 157.771 C 130.797 156.527,127.247 154.121,120.368 148.365 C 113.321 142.468,112.703 141.667,113.449 139.394 C 114.389 136.530,114.982 128.563,114.991 118.700 L 115.000 109.151 117.787 106.700 C 123.458 101.713,126.814 98.156,129.196 94.609 C 130.805 92.214,133.262 89.582,136.377 86.917 C 138.981 84.689,141.565 82.100,142.118 81.162 C 142.671 80.224,144.052 78.983,145.187 78.404 C 147.219 77.367,148.590 76.965,157.000 74.932 C 159.338 74.368,161.925 73.725,162.750 73.504 C 165.424 72.788,187.345 72.951,192.045 73.722 M178.875 174.323 C 186.968 174.606,188.000 174.737,188.000 175.483 C 188.000 175.946,188.549 177.939,189.220 179.912 L 190.440 183.500 177.415 183.500 L 164.389 183.500 164.713 181.771 C 164.891 180.820,165.365 179.414,165.766 178.646 C 166.166 177.878,166.495 176.381,166.497 175.318 C 166.500 173.409,166.519 173.390,168.125 173.695 C 169.019 173.865,173.856 174.148,178.875 174.323 M205.856 195.908 C 207.014 196.232,214.007 196.713,221.395 196.978 C 228.784 197.243,235.444 197.694,236.197 197.980 C 236.949 198.266,240.658 198.500,244.439 198.500 L 251.313 198.500 252.499 201.125 C 253.473 203.278,253.749 204.964,254.037 210.500 C 254.231 214.213,254.751 218.938,255.193 221.000 C 257.195 230.339,257.624 301.342,255.706 305.933 C 254.909 307.841,254.155 314.874,253.556 326.000 C 253.297 330.806,252.948 333.211,252.346 334.350 C 251.881 335.230,251.500 336.964,251.500 338.203 C 251.500 340.418,251.469 340.460,249.625 340.758 C 248.594 340.924,246.645 341.552,245.295 342.153 C 243.300 343.041,242.064 343.222,238.689 343.118 C 234.979 343.003,231.707 343.394,222.500 345.051 C 213.677 346.639,184.422 347.682,148.500 347.689 C 129.123 347.693,124.220 347.470,112.328 346.043 C 107.682 345.485,107.887 345.624,108.523 343.467 C 111.578 333.104,111.273 315.773,108.000 313.750 C 105.373 312.127,104.940 302.294,106.379 276.956 C 106.653 272.119,107.131 267.690,107.439 267.114 C 108.115 265.851,108.160 254.146,107.501 251.250 C 107.251 250.150,106.612 247.314,106.082 244.948 C 105.551 242.582,104.873 239.882,104.574 238.948 C 104.011 237.186,102.996 225.712,102.999 221.130 C 103.000 218.408,104.831 212.955,106.603 210.394 C 107.119 209.648,107.875 207.291,108.284 205.156 C 109.180 200.473,108.733 200.945,115.354 197.686 L 120.750 195.030 162.250 195.175 C 192.152 195.279,204.339 195.484,205.856 195.908 " stroke="none" fill="#000000" fill-rule="evenodd"></path></g></svg>