<?xml version="1.0" standalone="no"?>
<!DOCTYPE svg PUBLIC "-//W3C//DTD SVG 20010904//EN"
 "http://www.w3.org/TR/2001/REC-SVG-20010904/DTD/svg10.dtd">
<svg version="1.0" xmlns="http://www.w3.org/2000/svg"
 width="400.000000pt" height="300.000000pt" viewBox="0 0 400.000000 300.000000"
 preserveAspectRatio="xMidYMid meet">

<g transform="translate(0.000000,300.000000) scale(0.100000,-0.100000)"
fill="#000000" stroke="none">
<path d="M1720 2749 c-59 -16 -144 -51 -162 -67 -36 -30 -10 -80 34 -69 27 7
173 55 206 68 34 13 39 39 13 61 -25 20 -39 21 -91 7z"/>
<path d="M1721 2624 c-112 -31 -143 -60 -105 -99 11 -10 25 -14 38 -10 12 3
54 15 95 25 102 27 132 57 95 94 -19 19 -18 19 -123 -10z"/>
<path d="M1354 2601 c-37 -23 -147 -166 -165 -216 -11 -29 -20 -37 -54 -46
-22 -6 -57 -15 -79 -20 -50 -14 -62 -8 -70 35 -9 48 -46 74 -82 57 -24 -11
-26 -16 -22 -68 3 -53 1 -57 -22 -64 -14 -4 -44 -7 -67 -8 -39 -1 -42 1 -48
32 -13 59 -32 82 -92 112 -46 24 -71 30 -122 30 -58 0 -65 -3 -92 -32 -16 -18
-35 -58 -44 -90 -8 -32 -20 -72 -26 -90 -13 -42 -3 -97 28 -151 31 -55 75 -82
133 -82 81 1 138 40 200 138 12 19 25 24 65 26 28 2 66 6 86 10 l37 8 7 -44
c10 -61 29 -88 65 -88 41 0 53 27 41 93 -5 28 -8 53 -6 55 1 1 44 14 94 27 65
18 98 22 110 15 10 -5 51 -16 92 -26 41 -9 100 -27 132 -41 48 -22 62 -24 82
-15 18 8 25 19 25 40 0 56 -69 91 -253 127 l-27 5 16 33 c20 38 104 147 114
147 14 0 50 42 50 60 0 25 -26 50 -53 50 -12 0 -36 -9 -53 -19z m-760 -275
c40 -17 43 -21 51 -72 11 -70 -71 -166 -126 -149 -25 8 -25 25 0 18 38 -10 68
56 39 85 -17 17 -53 15 -68 -3 -22 -27 -22 -9 0 64 19 63 24 71 46 71 13 0 40
-6 58 -14z"/>
<path d="M548 2309 c-26 -15 -23 -65 3 -80 33 -17 69 3 69 39 0 46 -32 65 -72
41z"/>
<path d="M1777 2451 c-19 -17 -39 -31 -44 -31 -15 0 -43 -35 -43 -53 0 -22 36
-40 64 -33 13 3 44 24 70 47 37 33 46 47 44 68 -5 40 -47 40 -91 2z"/>
<path d="M2053 2463 c-52 -11 -53 -19 -53 -410 l0 -363 -335 0 -335 0 -21 -32
c-17 -28 -20 -46 -17 -115 3 -70 6 -86 26 -105 22 -23 24 -23 352 -26 l330 -3
0 -359 c0 -342 1 -361 19 -379 37 -37 194 -41 247 -6 l24 15 0 365 0 365 320
0 c219 0 327 4 344 11 33 15 50 66 48 148 0 47 -6 71 -20 90 l-19 26 -337 3
-336 2 0 369 c0 438 10 405 -129 408 -47 0 -96 -1 -108 -4z"/>
<path d="M445 1341 c-42 -26 -112 -101 -124 -132 -16 -45 -24 -181 -11 -214
17 -45 69 -94 107 -101 l34 -6 -3 -82 -3 -81 -35 1 c-19 0 -47 4 -62 8 -20 6
-31 3 -47 -13 -26 -26 -26 -42 -2 -72 15 -19 30 -24 85 -27 l67 -4 -7 -32
c-36 -171 -90 -277 -201 -395 -90 -96 -100 -114 -78 -147 28 -43 55 -31 147
66 48 49 95 103 104 120 10 16 21 30 25 30 11 0 59 -79 77 -128 14 -39 22 -48
45 -50 45 -5 60 15 54 71 -3 38 -16 66 -62 134 l-59 85 19 67 c10 36 23 89 29
118 6 28 14 54 17 58 4 3 46 2 95 -3 71 -8 94 -7 112 4 24 16 31 67 10 81 -7
4 -60 12 -118 18 l-105 10 0 70 0 70 67 5 c50 4 73 10 87 25 33 33 82 182 88
266 9 118 -9 136 -164 175 -118 29 -149 30 -188 5z m150 -106 c22 -8 49 -15
61 -15 34 0 41 -16 33 -78 -12 -84 -53 -172 -81 -172 -45 0 -154 23 -177 37
-22 14 -23 20 -19 90 3 41 10 79 17 86 10 9 11 8 6 -4 -3 -9 3 -26 13 -39 14
-18 25 -22 45 -16 39 9 48 53 17 78 -13 10 -30 16 -39 13 -11 -4 -10 -1 4 15
21 24 63 25 120 5z"/>
<path d="M529 1109 c-17 -33 3 -69 39 -69 33 0 52 16 52 45 0 29 -19 45 -52
45 -18 0 -31 -7 -39 -21z"/>
<path d="M3099 1177 c-51 -26 -89 -89 -89 -146 0 -48 32 -109 84 -160 40 -40
43 -46 35 -75 -5 -17 -9 -55 -9 -83 l0 -53 -58 0 c-44 0 -63 -5 -75 -18 -40
-44 -12 -80 70 -88 l62 -7 3 -96 c3 -78 0 -100 -13 -116 -9 -11 -33 -55 -52
-97 -19 -42 -47 -92 -61 -111 -63 -83 3 -148 75 -75 17 18 51 75 76 125 44 92
44 93 67 78 29 -19 112 -122 134 -167 13 -25 24 -34 49 -36 39 -4 58 24 48 74
-7 42 -111 172 -170 215 -43 31 -44 32 -50 104 -10 104 -8 109 45 113 105 8
109 102 5 102 -24 0 -47 4 -50 10 -3 5 -3 36 1 69 l6 59 54 4 c43 4 61 11 85
34 51 48 89 123 89 176 0 63 -29 96 -133 147 -100 49 -159 54 -228 18z m249
-172 c2 -17 -6 -39 -23 -61 -23 -30 -31 -34 -72 -34 -41 0 -50 5 -89 44 -36
35 -44 50 -44 79 0 28 5 39 23 48 18 9 20 9 10 -2 -16 -17 -17 -51 -1 -67 7
-7 24 -12 40 -12 36 0 55 32 39 67 -6 13 -11 26 -11 28 0 3 28 -11 63 -30 48
-27 63 -40 65 -60z"/>
<path d="M3242 1008 c-28 -28 -7 -78 33 -78 27 0 45 18 45 45 0 27 -18 45 -45
45 -12 0 -26 -5 -33 -12z"/>
</g>
</svg>
