<?xml version="1.0" standalone="no"?>
<!DOCTYPE svg PUBLIC "-//W3C//DTD SVG 20010904//EN"
 "http://www.w3.org/TR/2001/REC-SVG-20010904/DTD/svg10.dtd">
<svg version="1.0" xmlns="http://www.w3.org/2000/svg"
 width="200.000000pt" height="200.000000pt" viewBox="0 0 200.000000 200.000000"
 preserveAspectRatio="xMidYMid meet">

<g transform="translate(0.000000,200.000000) scale(0.100000,-0.100000)"
fill="#000000" stroke="none">
<path d="M731 1836 c-13 -7 -30 -24 -37 -37 -51 -92 72 -183 146 -109 43 43
32 118 -21 145 -34 18 -57 18 -88 1z m94 -31 c14 -13 25 -36 25 -50 0 -33 -42
-75 -75 -75 -33 0 -75 42 -75 75 0 14 11 37 25 50 13 14 36 25 50 25 14 0 37
-11 50 -25z"/>
<path d="M989 1711 c-20 -20 -29 -39 -29 -61 0 -43 47 -90 90 -90 43 0 90 47
90 90 0 43 -47 90 -90 90 -22 0 -41 -9 -61 -29z m106 -16 c14 -13 25 -33 25
-45 0 -27 -43 -70 -70 -70 -27 0 -70 43 -70 70 0 12 11 32 25 45 13 14 34 25
45 25 12 0 32 -11 45 -25z"/>
<path d="M679 1501 c-20 -20 -29 -39 -29 -61 0 -43 47 -90 90 -90 43 0 90 47
90 90 0 43 -47 90 -90 90 -22 0 -41 -9 -61 -29z m106 -16 c14 -13 25 -33 25
-45 0 -27 -43 -70 -70 -70 -27 0 -70 43 -70 70 0 12 11 32 25 45 13 14 34 25
45 25 12 0 32 -11 45 -25z"/>
<path d="M1044 1456 c-46 -46 -46 -86 0 -132 46 -46 86 -46 132 0 25 25 34 43
34 66 0 44 -56 100 -100 100 -23 0 -41 -9 -66 -34z m100 3 c55 -26 55 -112 0
-138 -38 -17 -59 -13 -88 15 -34 35 -34 73 0 108 29 28 50 32 88 15z"/>
<path d="M553 1240 c-73 -23 -97 -108 -44 -161 16 -16 36 -29 45 -29 21 0 11
-81 -21 -175 -13 -38 -28 -88 -34 -110 -19 -78 -89 -268 -125 -339 -14 -26
-39 -87 -57 -135 -37 -103 -42 -204 -13 -259 l17 -34 332 5 c295 4 341 6 412
25 50 13 141 24 236 30 170 11 190 17 215 70 19 41 6 113 -37 207 -18 38 -36
100 -44 152 -19 121 -56 225 -107 293 -18 25 -18 26 33 140 66 148 75 219 34
268 -15 18 -42 36 -63 41 -53 14 -739 23 -779 11z m484 -207 l151 -6 -49 -105
c-28 -59 -49 -118 -49 -138 l0 -33 -187 -3 c-104 -2 -190 -2 -192 -1 -1 1 5
25 14 53 9 28 17 68 17 88 0 20 6 49 14 64 8 15 14 41 14 58 l0 30 58 0 c33 0
127 -3 209 -7z"/>
</g>
</svg>
