<?xml version="1.0" standalone="no"?>
<!DOCTYPE svg PUBLIC "-//W3C//DTD SVG 20010904//EN"
 "http://www.w3.org/TR/2001/REC-SVG-20010904/DTD/svg10.dtd">
<svg version="1.0" xmlns="http://www.w3.org/2000/svg"
 width="200.000000pt" height="200.000000pt" viewBox="0 0 200.000000 200.000000"
 preserveAspectRatio="xMidYMid meet">

<g transform="translate(0.000000,200.000000) scale(0.100000,-0.100000)"
fill="#000000" stroke="none">
<path d="M646 1770 c-38 -12 -95 -67 -166 -162 -49 -65 -59 -87 -69 -143 -14
-80 -2 -135 36 -164 64 -51 145 -7 158 85 11 75 87 184 129 184 12 -1 57 -20
101 -43 69 -36 84 -49 112 -97 29 -49 33 -63 33 -128 0 -76 -26 -174 -59 -222
-10 -14 -32 -52 -48 -85 -17 -33 -51 -91 -77 -130 -26 -38 -67 -112 -92 -163
-37 -76 -45 -100 -40 -128 13 -68 103 -98 159 -53 15 11 48 61 74 111 26 50
61 110 78 132 46 60 160 282 187 362 18 56 23 91 23 180 0 109 -1 112 -39 188
-60 118 -102 159 -220 216 -136 66 -207 81 -280 60z"/>
<path d="M669 341 c-21 -22 -29 -39 -29 -66 0 -51 44 -95 95 -95 51 0 95 44
95 95 0 51 -44 95 -95 95 -27 0 -44 -8 -66 -29z"/>
</g>
</svg>
