<svg id="svg" version="1.1" xmlns="http://www.w3.org/2000/svg" xmlns:xlink="http://www.w3.org/1999/xlink" width="400" height="184.61538461538464" viewBox="0, 0, 400,184.61538461538464"><g id="svgg"><path id="path0" d="M179.817 4.238 C 178.659 4.890,177.183 6.446,176.537 7.695 C 175.891 8.945,173.550 11.173,171.335 12.647 C 158.268 21.341,156.000 23.755,156.000 28.967 C 156.000 37.209,165.433 40.294,172.400 34.330 C 176.415 30.894,176.923 30.867,176.923 34.094 C 176.923 46.910,193.495 65.228,203.605 63.587 C 211.463 62.312,213.576 52.306,206.923 47.876 C 198.986 42.592,194.615 35.732,194.615 28.560 L 194.615 23.846 196.999 23.846 C 198.395 23.846,201.253 25.000,203.893 26.630 C 215.045 33.513,226.456 27.176,221.202 17.017 C 219.352 13.438,205.825 6.173,200.925 6.127 C 199.359 6.112,195.827 5.578,193.077 4.941 C 185.056 3.083,182.143 2.928,179.817 4.238 M33.157 46.357 C 28.486 48.766,29.749 52.635,36.702 57.215 C 39.587 59.116,42.781 61.558,43.800 62.643 C 44.819 63.728,45.968 64.615,46.353 64.615 C 47.219 64.615,56.154 71.580,56.154 72.255 C 56.154 75.377,63.156 75.615,65.157 72.561 C 67.197 69.448,59.475 59.009,53.643 56.995 C 53.144 56.822,50.649 55.057,48.099 53.072 C 39.240 46.177,36.177 44.801,33.157 46.357 M305.769 57.379 C 304.077 57.993,300.615 59.498,298.077 60.723 C 295.538 61.949,292.596 63.195,291.538 63.493 C 290.481 63.791,289.130 64.425,288.536 64.902 C 287.942 65.379,284.403 66.860,280.670 68.192 C 266.502 73.251,260.710 77.832,263.362 81.879 C 265.509 85.157,267.759 85.119,274.805 81.690 C 278.297 79.990,283.404 77.826,286.154 76.881 C 288.904 75.937,292.360 74.521,293.835 73.736 C 295.309 72.950,296.760 72.308,297.059 72.308 C 297.357 72.308,300.543 70.923,304.138 69.231 C 307.734 67.538,311.231 66.154,311.911 66.154 C 313.504 66.154,316.923 62.743,316.923 61.154 C 316.923 57.117,311.526 55.290,305.769 57.379 M113.846 61.644 C 112.365 62.039,104.750 62.568,96.923 62.819 C 78.632 63.405,75.296 65.112,76.397 73.319 C 77.255 79.720,78.814 80.350,94.474 80.624 L 108.147 80.863 107.147 89.470 C 106.596 94.204,105.790 98.899,105.354 99.903 C 102.191 107.193,103.925 119.577,108.436 121.910 C 115.225 125.421,120.780 121.382,121.815 112.182 C 122.085 109.786,122.791 105.805,123.384 103.336 C 123.977 100.866,124.896 94.293,125.426 88.728 L 126.389 78.610 132.793 78.343 C 144.151 77.871,148.537 66.736,139.256 61.936 C 136.670 60.599,118.548 60.391,113.846 61.644 M230.000 62.878 C 224.517 65.011,218.299 71.798,215.019 79.231 C 210.527 89.411,211.943 115.548,217.225 119.931 C 217.766 120.380,218.663 122.125,219.218 123.808 C 221.442 130.547,229.649 133.008,234.320 128.338 C 238.092 124.566,237.508 115.706,233.147 110.520 C 232.083 109.255,230.119 103.272,230.034 101.034 C 230.015 100.531,231.757 99.921,234.038 99.630 C 242.509 98.551,246.889 96.855,251.023 93.055 L 254.960 89.435 255.262 83.456 C 255.748 73.817,252.538 67.496,245.275 63.790 C 242.408 62.328,232.878 61.758,230.000 62.878 M165.000 72.944 C 156.416 76.624,148.932 82.615,146.736 87.564 C 136.899 109.725,160.801 123.459,178.651 105.902 C 183.184 101.443,186.146 101.058,186.156 104.927 C 186.157 105.390,187.501 107.327,189.143 109.231 C 195.839 116.996,209.446 110.550,205.396 101.530 C 201.899 93.742,188.254 76.154,185.708 76.154 C 185.107 76.154,184.615 75.803,184.615 75.373 C 184.615 71.857,171.363 70.216,165.000 72.944 M268.811 90.350 C 267.773 91.388,266.923 92.788,266.923 93.462 C 266.923 94.135,267.773 95.535,268.811 96.573 L 270.699 98.462 291.538 98.462 L 312.378 98.462 314.266 96.573 C 315.304 95.535,316.154 94.135,316.154 93.462 C 316.154 92.788,315.304 91.388,314.266 90.350 L 312.378 88.462 291.538 88.462 L 270.699 88.462 268.811 90.350 M18.542 92.511 C 14.995 94.340,15.075 99.335,18.673 100.703 C 22.246 102.062,62.499 103.116,64.365 101.900 C 67.612 99.784,67.306 95.698,63.758 93.799 C 62.875 93.326,54.928 92.646,45.891 92.270 C 24.130 91.364,20.708 91.395,18.542 92.511 M273.500 112.584 C 268.981 117.103,272.044 120.280,283.200 122.644 C 286.305 123.302,291.225 124.352,294.132 124.977 C 297.040 125.602,300.502 126.751,301.825 127.531 C 308.061 131.206,312.393 131.131,313.841 127.321 C 316.130 121.300,307.959 117.168,285.000 112.738 C 282.038 112.167,278.681 111.457,277.539 111.161 C 275.903 110.736,275.045 111.039,273.500 112.584 M60.330 116.538 C 58.247 118.019,56.196 119.232,55.772 119.232 C 54.715 119.235,46.294 123.700,43.462 125.761 C 42.192 126.684,39.500 128.048,37.479 128.791 C 29.907 131.577,26.914 136.215,30.423 139.724 C 33.206 142.507,38.495 140.699,52.675 132.117 C 56.051 130.074,59.685 128.187,60.752 127.922 C 68.157 126.089,72.039 119.661,68.112 115.734 C 65.634 113.257,64.829 113.340,60.330 116.538 M158.269 142.081 C 159.221 142.265,160.779 142.265,161.731 142.081 C 162.683 141.898,161.904 141.748,160.000 141.748 C 158.096 141.748,157.317 141.898,158.269 142.081 M329.412 142.286 C 323.944 144.639,325.047 166.962,330.902 172.431 C 335.520 176.746,347.831 177.666,350.862 173.923 C 354.265 169.720,351.628 163.952,346.761 164.952 C 339.843 166.373,338.621 166.351,337.783 164.785 C 337.033 163.384,337.273 163.239,340.935 162.887 C 351.249 161.896,354.568 149.284,345.921 143.940 C 342.993 142.131,332.269 141.056,329.412 142.286 M70.350 144.196 C 69.311 145.234,68.462 146.792,68.462 147.657 C 68.462 149.094,67.989 149.231,63.042 149.231 C 58.313 149.231,57.382 149.472,55.734 151.119 C 51.715 155.138,54.992 159.231,62.228 159.231 L 66.834 159.231 66.388 164.545 C 65.918 170.156,67.809 173.846,71.154 173.846 C 73.320 173.846,76.153 170.277,76.164 167.535 C 76.185 162.493,76.815 161.538,80.125 161.538 C 83.356 161.538,86.923 158.915,86.923 156.538 C 86.923 154.349,83.355 151.538,80.574 151.538 C 78.095 151.538,78.012 151.442,78.310 148.890 C 78.916 143.702,73.838 140.708,70.350 144.196 M312.308 143.623 C 311.673 143.856,310.595 144.532,309.912 145.125 C 308.877 146.024,308.068 146.043,305.060 145.238 C 298.898 143.590,295.656 146.654,294.893 154.844 C 294.180 162.499,299.954 168.077,308.590 168.077 C 314.432 168.077,314.527 168.157,312.200 171.116 C 310.800 172.896,310.169 173.136,307.969 172.723 C 303.027 171.796,299.942 177.376,303.216 181.321 C 305.409 183.963,312.606 183.411,317.522 180.223 C 323.522 176.333,325.802 165.436,322.367 157.066 C 321.554 155.083,320.663 152.111,320.387 150.461 C 319.591 145.687,315.685 142.381,312.308 143.623 M183.377 145.784 L 181.440 147.721 181.681 161.143 C 181.946 175.829,182.337 177.115,186.538 177.115 C 189.348 177.115,190.806 175.435,191.320 171.604 C 191.901 167.271,195.997 167.086,197.092 171.342 C 197.886 174.428,200.815 176.502,203.446 175.842 C 211.789 173.748,205.786 159.307,196.287 158.620 L 191.538 158.277 191.538 152.950 C 191.538 144.935,187.645 141.516,183.377 145.784 M254.893 145.806 C 252.663 148.036,252.671 151.126,254.930 159.615 C 255.605 162.154,256.358 165.918,256.602 167.981 C 257.961 179.457,266.254 177.284,267.183 165.209 C 267.946 155.280,268.327 154.615,273.257 154.615 C 278.111 154.615,278.666 155.258,280.790 163.353 C 282.854 171.217,285.911 173.389,289.650 169.650 C 292.155 167.146,290.763 155.623,287.479 151.666 C 286.995 151.082,286.234 149.863,285.789 148.956 C 283.907 145.127,270.670 142.936,264.223 145.388 C 262.683 145.973,261.792 145.880,260.540 145.003 C 258.240 143.392,257.153 143.547,254.893 145.806 M228.623 148.453 C 213.024 150.225,213.191 173.702,228.809 174.490 L 234.693 174.787 237.645 171.589 L 240.598 168.391 243.537 170.386 C 247.639 173.170,252.229 172.870,253.732 169.721 C 255.162 166.724,253.984 164.340,250.092 162.355 C 248.171 161.374,245.301 158.545,242.323 154.696 C 237.791 148.838,236.325 147.567,234.360 147.798 C 233.866 147.855,231.284 148.150,228.623 148.453 M95.624 148.959 C 88.069 150.604,85.732 166.420,92.535 169.867 C 107.671 177.537,117.692 174.118,117.692 161.284 C 117.692 158.018,114.212 153.528,111.068 152.740 C 109.973 152.465,108.095 151.514,106.895 150.627 C 104.727 149.024,99.131 148.196,95.624 148.959 M155.769 150.521 C 150.022 152.041,145.378 162.719,147.738 168.988 C 151.051 177.791,166.470 183.600,171.958 178.112 C 175.797 174.273,172.695 170.000,166.069 170.000 C 159.199 170.000,155.422 166.082,158.203 161.839 C 159.445 159.943,159.696 159.893,166.736 160.130 C 176.246 160.450,179.895 156.620,174.924 151.538 C 173.776 150.365,159.273 149.595,155.769 150.521 M340.000 152.782 C 340.000 152.944,339.135 153.077,338.077 153.077 C 337.019 153.077,336.154 152.779,336.154 152.414 C 336.154 152.050,337.019 151.917,338.077 152.119 C 339.135 152.322,340.000 152.620,340.000 152.782 M310.381 157.698 C 309.644 158.891,308.028 158.602,306.047 156.922 C 304.890 155.940,304.702 155.545,305.530 155.832 C 306.245 156.080,307.456 155.932,308.222 155.503 C 309.734 154.657,311.286 156.234,310.381 157.698 M100.709 159.550 C 101.377 160.148,103.111 160.943,104.563 161.316 C 107.729 162.129,108.655 163.846,105.927 163.846 C 102.659 163.846,98.462 161.678,98.462 159.990 C 98.462 158.182,99.054 158.067,100.709 159.550 M232.297 159.808 C 232.272 163.006,231.344 164.615,229.526 164.615 C 227.709 164.615,226.733 160.446,228.205 158.974 C 229.323 157.856,232.308 158.464,232.297 159.808 " stroke="none" fill="#000000" fill-rule="evenodd"></path></g></svg>