<?xml version="1.0" standalone="no"?>
<!DOCTYPE svg PUBLIC "-//W3C//DTD SVG 20010904//EN"
 "http://www.w3.org/TR/2001/REC-SVG-20010904/DTD/svg10.dtd">
<svg version="1.0" xmlns="http://www.w3.org/2000/svg"
 width="800.000000pt" height="1080.000000pt" viewBox="0 0 800.000000 1080.000000"
 preserveAspectRatio="xMidYMid meet">

<g transform="translate(0.000000,1080.000000) scale(0.100000,-0.100000)"
fill="#000000" stroke="none">
<path d="M828 6764 c-76 -41 -61 -131 47 -295 87 -129 156 -179 475 -341 159
-81 252 -116 343 -128 101 -13 371 -13 419 0 90 25 106 137 25 182 -15 8 -98
14 -252 18 l-230 6 -110 52 c-60 29 -177 90 -259 135 -172 94 -227 146 -292
273 -54 105 -101 134 -166 98z"/>
<path d="M6323 6661 c-11 -6 -28 -20 -37 -33 -76 -108 -141 -188 -176 -216
-29 -25 -86 -49 -208 -90 l-167 -55 -280 -6 c-197 -4 -287 -10 -302 -19 -81
-46 -65 -157 25 -182 20 -5 133 -10 251 -10 226 0 364 15 451 50 25 10 86 31
135 46 170 52 234 96 347 237 98 122 121 199 76 252 -25 28 -79 40 -115 26z"/>
<path d="M6120 5679 c-47 -4 -160 -7 -252 -8 -97 -1 -197 -7 -240 -15 -40 -8
-136 -17 -213 -21 -77 -4 -157 -11 -177 -16 -106 -27 -102 -161 5 -190 45 -12
248 -4 327 13 46 9 349 24 705 33 253 7 278 10 315 41 25 21 30 33 30 68 0 49
-26 81 -81 96 -38 11 -290 11 -419 -1z"/>
<path d="M1435 5623 c-22 -2 -89 -10 -150 -18 -66 -9 -190 -15 -315 -15 -113
0 -220 -4 -239 -10 -54 -15 -81 -47 -81 -95 0 -48 27 -80 81 -95 54 -16 390
-12 514 6 75 11 226 18 475 23 264 4 371 10 387 19 81 46 65 157 -25 182 -34
9 -549 12 -647 3z"/>
<path d="M1200 5031 c-49 -11 -180 -59 -207 -77 -40 -25 -114 -98 -128 -124
-53 -102 -80 -268 -50 -313 24 -38 74 -52 118 -33 39 16 61 50 71 111 22 120
48 156 153 206 l63 29 308 0 c270 0 319 -2 398 -20 127 -28 159 -26 195 9 38
38 39 87 4 129 -22 26 -43 35 -138 58 -110 28 -119 28 -432 30 -176 1 -336 -1
-355 -5z"/>
<path d="M5185 4833 c-72 -11 -105 -25 -134 -58 -81 -93 14 -220 119 -160 20
12 90 14 373 15 315 0 356 -2 426 -20 156 -40 182 -58 240 -174 47 -93 83
-126 140 -126 46 0 91 47 91 93 0 46 -80 204 -135 265 -57 63 -116 94 -255
133 l-115 32 -360 2 c-198 2 -373 1 -390 -2z"/>
</g>
</svg>
