<?xml version="1.0" standalone="no"?>
<!DOCTYPE svg PUBLIC "-//W3C//DTD SVG 20010904//EN"
 "http://www.w3.org/TR/2001/REC-SVG-20010904/DTD/svg10.dtd">
<svg version="1.0" xmlns="http://www.w3.org/2000/svg"
 width="800.000000pt" height="1080.000000pt" viewBox="0 0 800.000000 1080.000000"
 preserveAspectRatio="xMidYMid meet">

<g transform="translate(0.000000,1080.000000) scale(0.100000,-0.100000)"
fill="#000000" stroke="none">
<path d="M5433 7320 c-62 -13 -96 -34 -127 -79 -52 -75 -54 -185 -5 -237 34
-36 124 -67 199 -68 115 -2 173 33 254 153 55 81 45 144 -28 177 -17 8 -43 24
-58 36 -22 18 -43 22 -110 24 -46 2 -102 -1 -125 -6z"/>
<path d="M6150 6893 c-27 -10 -59 -45 -65 -73 -8 -36 5 -66 69 -163 30 -45 62
-102 72 -127 10 -25 31 -65 48 -89 18 -28 29 -57 29 -75 -8 -191 -33 -417 -49
-435 -2 -2 -15 11 -30 28 -15 18 -62 50 -106 72 -77 39 -78 40 -63 62 46 66
-11 157 -147 235 -31 18 -58 39 -62 47 -3 8 -8 48 -12 90 -6 72 -6 75 14 75
12 0 37 14 57 31 30 27 35 37 35 74 0 59 -41 95 -109 95 -46 0 -47 0 -72 53
-42 88 -116 111 -175 52 -28 -28 -32 -77 -10 -130 l15 -35 -52 0 c-107 0 -167
-38 -167 -105 0 -72 66 -108 188 -104 l67 3 10 -65 c6 -35 10 -140 9 -234 l-1
-170 -57 -115 c-42 -84 -58 -127 -58 -158 -1 -55 8 -51 -237 -98 -13 -3 -36
-18 -52 -34 -41 -40 -40 -91 2 -132 30 -30 32 -31 107 -25 64 4 258 47 282 62
4 3 52 11 107 19 211 32 308 64 507 166 43 22 89 40 102 40 14 0 40 15 61 33
34 32 37 39 60 168 13 74 26 182 30 241 l6 108 41 -34 c44 -36 132 -79 242
-119 38 -14 86 -32 106 -41 21 -9 56 -16 78 -16 82 0 129 90 81 152 -18 22
-60 42 -256 120 -27 11 -53 23 -57 27 -4 4 1 25 12 46 26 53 90 300 90 348 0
76 -87 124 -148 81 -33 -23 -48 -59 -83 -198 -22 -88 -40 -139 -60 -166 -16
-22 -33 -40 -37 -40 -4 0 -18 19 -30 43 -11 23 -28 53 -36 67 -8 14 -31 59
-52 100 -90 184 -175 268 -244 243z m-280 -788 c10 -12 10 -15 -4 -15 -9 0
-16 7 -16 15 0 8 2 15 4 15 2 0 9 -7 16 -15z m135 -247 c25 -12 45 -25 45 -29
0 -20 -291 -112 -306 -96 -9 9 47 116 68 131 34 24 137 21 193 -6z"/>
<path d="M977 6596 c-14 -13 -30 -41 -36 -62 -16 -60 -157 -324 -173 -324 -11
0 -69 171 -82 244 -14 73 -34 100 -82 112 -32 8 -82 -13 -102 -44 -36 -55 0
-243 75 -394 32 -66 30 -75 -15 -75 -73 0 -208 -25 -252 -46 -82 -40 -101
-117 -44 -174 27 -27 61 -28 154 -5 25 6 79 18 120 26 41 7 85 17 96 21 18 6
36 -10 116 -107 181 -217 341 -341 477 -369 68 -14 540 -7 661 11 47 6 105 14
129 17 58 6 101 47 101 96 0 74 -71 114 -186 104 l-62 -6 -6 37 c-6 43 -83
144 -134 179 -21 13 -57 24 -98 28 -197 22 -402 -112 -370 -240 4 -14 4 -25 0
-25 -3 0 -34 15 -68 33 -69 36 -193 149 -273 250 l-55 69 21 22 c11 12 27 42
34 67 8 24 52 112 99 195 126 220 144 291 92 353 -34 41 -97 44 -137 7z m673
-966 l21 -30 -110 0 c-61 0 -111 4 -111 9 0 18 85 51 132 51 40 0 49 -4 68
-30z"/>
</g>
</svg>
